<?xml version="1.0" encoding="UTF-8"?>
<svg width="40px" height="40px" viewBox="0 0 40 40" version="1.1" xmlns="http://www.w3.org/2000/svg" xmlns:xlink="http://www.w3.org/1999/xlink">
    <!-- Generator: Sketch 50.1 (55044) - http://www.bohemiancoding.com/sketch -->
    <title>HighCPU-Droplets-01</title>
    <desc>Created with Sketch.</desc>
    <defs>
        <linearGradient x1="50%" y1="3.62540984%" x2="50%" y2="130.408197%" id="linearGradient-1">
            <stop stop-color="#0069FF" stop-opacity="0.5" offset="0%"></stop>
            <stop stop-color="#0069FF" stop-opacity="0" offset="100%"></stop>
        </linearGradient>
    </defs>
    <g id="Page-1" stroke="none" stroke-width="1" fill="none" fill-rule="evenodd">
        <g id="Price-to-Performance-V3" transform="translate(-345.000000, -3603.000000)" fill-rule="nonzero">
            <g id="Group-8" transform="translate(0.000000, 3321.000000)">
                <g id="row" transform="translate(295.000000, 232.000000)">
                    <g id="HighCPU-Droplets-01" transform="translate(50.000000, 50.000000)">
                        <g id="Group" fill="#FFFFFF">
                            <g transform="translate(0.000000, 12.571429)" id="Shape" stroke="#120078" stroke-width="2.28571429">
                                <path d="M0,7.42857143 L40,7.42857143"></path>
                                <path d="M0,14.6285714 L40,14.6285714"></path>
                                <path d="M0,0.228571429 L40,0.228571429"></path>
                            </g>
                            <g transform="translate(12.571429, 0.000000)" id="Shape" stroke="#120078" stroke-width="2.28571429">
                                <path d="M7.42857143,40 L7.42857143,0"></path>
                                <path d="M14.6285714,40 L14.6285714,0"></path>
                                <path d="M0.228571429,40 L0.228571429,0"></path>
                            </g>
                            <path d="M32.8,33.9428571 L7.2,33.9428571 C6.51428571,33.9428571 6.05714286,33.4857143 6.05714286,32.8 L6.05714286,7.2 C6.05714286,6.51428571 6.51428571,6.05714286 7.2,6.05714286 L32.8,6.05714286 C33.4857143,6.05714286 33.9428571,6.51428571 33.9428571,7.2 L33.9428571,32.8 C33.9428571,33.4857143 33.4857143,33.9428571 32.8,33.9428571 Z" id="Shape"></path>
                        </g>
                        <path d="M32.8,33.9428571 L7.2,33.9428571 C6.51428571,33.9428571 6.05714286,33.4857143 6.05714286,32.8 L6.05714286,7.2 C6.05714286,6.51428571 6.51428571,6.05714286 7.2,6.05714286 L32.8,6.05714286 C33.4857143,6.05714286 33.9428571,6.51428571 33.9428571,7.2 L33.9428571,32.8 C33.9428571,33.4857143 33.4857143,33.9428571 32.8,33.9428571 Z" id="Shape" fill="url(#linearGradient-1)"></path>
                        <path d="M14.0571429,22.0571429 C14.0571429,18.7428571 20,12.6857143 20,12.6857143 C20,12.6857143 25.9428571,18.7428571 25.9428571,22.0571429 C25.9428571,25.3714286 23.3142857,28 20,28 C16.6857143,28 14.0571429,25.3714286 14.0571429,22.0571429 Z" id="Shape" stroke="#0069FF" stroke-width="2.28571429" fill="#FFFFFF"></path>
                    </g>
                </g>
            </g>
        </g>
    </g>
</svg>